<svg width="496" height="69" viewBox="0 0 496 69" fill="none" xmlns="http://www.w3.org/2000/svg">
<rect x="31.7749" width="27.3924" height="46.5671" fill="url(#paint0_linear_613_71)"/>
<rect width="27.3924" height="68.4811" fill="url(#paint1_linear_613_71)"/>
<rect x="63.5503" width="27.3924" height="68.4811" fill="url(#paint2_linear_613_71)"/>
<path d="M107 0.918251H129.573L145.1 38.9601H145.883L161.41 0.918251H183.983V68.0817H166.238V29.2529H165.716L150.841 67.557H140.142L125.267 28.9905H124.745V68.0817H107V0.918251Z" fill="white"/>
<path d="M192.578 68.0817V0.918251H240.725V15.6103H210.715V27.154H238.246V41.846H210.715V53.3897H240.595V68.0817H192.578Z" fill="white"/>
<path d="M247.893 15.6103V0.918251H305.957V15.6103H285.863V68.0817H267.987V15.6103H247.893Z" fill="white"/>
<path d="M312.782 68.0817V0.918251H360.929V15.6103H330.919V27.154H358.45V41.846H330.919V53.3897H360.799V68.0817H312.782Z" fill="white"/>
<path d="M369.924 68.0817V0.918251H398.76C403.718 0.918251 408.057 1.82557 411.776 3.64021C415.494 5.45485 418.386 8.06749 420.452 11.4781C422.518 14.8888 423.551 18.9772 423.551 23.7433C423.551 28.5532 422.486 32.6088 420.355 35.9102C418.245 39.2115 415.277 41.7039 411.449 43.3874C407.644 45.0708 403.196 45.9125 398.108 45.9125H380.885V31.7452H394.454C396.586 31.7452 398.401 31.4829 399.902 30.9582C401.424 30.4116 402.588 29.548 403.392 28.3674C404.219 27.1868 404.632 25.6454 404.632 23.7433C404.632 21.8194 404.219 20.2562 403.392 19.0537C402.588 17.8294 401.424 16.933 399.902 16.3645C398.401 15.7742 396.586 15.4791 394.454 15.4791H388.061V68.0817H369.924ZM409.068 37.2548L425.769 68.0817H406.067L389.757 37.2548H409.068Z" fill="white"/>
<path d="M496 34.5C496 41.9772 494.554 48.2847 491.662 53.4225C488.769 58.5385 484.866 62.4192 479.951 65.0646C475.036 67.6882 469.556 69 463.511 69C457.422 69 451.92 67.6773 447.005 65.0318C442.112 62.3645 438.219 58.4729 435.327 53.3569C432.457 48.2191 431.021 41.9335 431.021 34.5C431.021 27.0228 432.457 20.7262 435.327 15.6103C438.219 10.4724 442.112 6.59173 447.005 3.96816C451.92 1.32272 457.422 0 463.511 0C469.556 0 475.036 1.32272 479.951 3.96816C484.866 6.59173 488.769 10.4724 491.662 15.6103C494.554 20.7262 496 27.0228 496 34.5ZM477.341 34.5C477.341 30.4772 476.809 27.0884 475.743 24.3337C474.699 21.557 473.144 19.4582 471.078 18.0371C469.034 16.5941 466.512 15.8726 463.511 15.8726C460.51 15.8726 457.976 16.5941 455.91 18.0371C453.866 19.4582 452.311 21.557 451.246 24.3337C450.202 27.0884 449.68 30.4772 449.68 34.5C449.68 38.5228 450.202 41.9225 451.246 44.6991C452.311 47.4539 453.866 49.5528 455.91 50.9957C457.976 52.4168 460.51 53.1274 463.511 53.1274C466.512 53.1274 469.034 52.4168 471.078 50.9957C473.144 49.5528 474.699 47.4539 475.743 44.6991C476.809 41.9225 477.341 38.5228 477.341 34.5Z" fill="white"/>
<defs>
<linearGradient id="paint0_linear_613_71" x1="45.4711" y1="0" x2="45.4711" y2="46.5671" gradientUnits="userSpaceOnUse">
<stop stop-color="#880D1E"/>
<stop offset="1" stop-color="#200307"/>
</linearGradient>
<linearGradient id="paint1_linear_613_71" x1="13.6962" y1="0" x2="13.6962" y2="68.4811" gradientUnits="userSpaceOnUse">
<stop stop-color="#880D1E"/>
<stop offset="1" stop-color="#200307"/>
</linearGradient>
<linearGradient id="paint2_linear_613_71" x1="77.2465" y1="0" x2="77.2465" y2="68.4811" gradientUnits="userSpaceOnUse">
<stop stop-color="#880D1E"/>
<stop offset="1" stop-color="#200307"/>
</linearGradient>
</defs>
</svg>
